<?xml version="1.0" encoding="UTF-8" standalone="no" ?>
<!DOCTYPE svg PUBLIC "-//W3C//DTD SVG 1.1//EN" "http://www.w3.org/Graphics/SVG/1.1/DTD/svg11.dtd">
<svg xmlns="http://www.w3.org/2000/svg" xmlns:xlink="http://www.w3.org/1999/xlink" version="1.1" width="1000" height="100" viewBox="0 0 1000 100" xml:space="preserve">
<desc>Created with Fabric.js 5.2.4</desc>
<defs>
</defs>
<rect x="0" y="0" width="100%" height="100%" fill="transparent"></rect>
<g transform="matrix(1 0 0 1 500 50)" id="d639d7c3-845b-4178-8352-f0f0ce04e1c4"  >
<rect style="stroke: none; stroke-width: 1; stroke-dasharray: none; stroke-linecap: butt; stroke-dashoffset: 0; stroke-linejoin: miter; stroke-miterlimit: 4; fill: rgb(255,255,255); fill-rule: nonzero; opacity: 1; visibility: hidden;" vector-effect="non-scaling-stroke"  x="-500" y="-50" rx="0" ry="0" width="1000" height="100" />
</g>
<g transform="matrix(0 0 0 0 0 0)" id="77c1e3de-815b-4259-9654-c49403529fd3"  >
</g>
<g transform="matrix(1 0 0 1.15 500 50)" style="" id="ef050b88-9b22-47e7-b1fe-840384e6bd43"  >
		<text xml:space="preserve" font-family="Raleway" font-size="89" font-style="normal" font-weight="900" style="stroke: none; stroke-width: 1; stroke-dasharray: none; stroke-linecap: butt; stroke-dashoffset: 0; stroke-linejoin: miter; stroke-miterlimit: 4; fill: rgb(0,0,0); fill-rule: nonzero; opacity: 1; white-space: pre;" ><tspan x="-482.38" y="27.96" >G</tspan><tspan x="-418.39" y="27.96" >i</tspan><tspan x="-394.72" y="27.96" >t</tspan><tspan x="-358.85" y="27.96" >H</tspan><tspan x="-293.88" y="27.96" >u</tspan><tspan x="-238.88" y="27.96" >b</tspan><tspan x="-183.07" y="27.96" style="white-space: pre; "> </tspan><tspan x="-164.83" y="27.96" >A</tspan><tspan x="-108.67" y="27.96" >c</tspan><tspan x="-59.1" y="27.96" >t</tspan><tspan x="-23.23" y="27.96" >i</tspan><tspan x="0.44" y="27.96" >o</tspan><tspan x="53.31" y="27.96" >n</tspan><tspan x="106.8" y="27.96" >s</tspan><tspan x="149.61" y="27.96" style="white-space: pre; "> </tspan><tspan x="167.85" y="27.96" >B</tspan><tspan x="227.04" y="27.96" >u</tspan><tspan x="282.04" y="27.96" >i</tspan><tspan x="305.72" y="27.96" >l</tspan><tspan x="335.53" y="27.96" >d</tspan><tspan x="392.94" y="27.96" >e</tspan><tspan x="445.36" y="27.96" >r</tspan></text>
</g>
</svg>